<mxfile host="Electron" modified="2023-09-16T11:52:29.685Z" agent="Mozilla/5.0 (Windows NT 10.0; Win64; x64) AppleWebKit/537.36 (KHTML, like Gecko) draw.io/21.5.1 Chrome/112.0.5615.204 Electron/24.6.0 Safari/537.36" etag="LFTj4mblljHQuFmcBslx" version="21.5.1" type="device">
  <diagram id="LEzTMZEvCFs_uiWNrXdf" name="Страница 1">
    <mxGraphModel dx="-472" dy="690" grid="1" gridSize="10" guides="1" tooltips="1" connect="1" arrows="1" fold="1" page="1" pageScale="1" pageWidth="827" pageHeight="1169" math="0" shadow="0">
      <root>
        <mxCell id="0" />
        <mxCell id="1" parent="0" />
        <mxCell id="bAh6WNI2BAp8KADH5OYd-2" style="edgeStyle=orthogonalEdgeStyle;rounded=0;orthogonalLoop=1;jettySize=auto;html=1;entryX=0.5;entryY=0;entryDx=0;entryDy=0;" edge="1" parent="1" source="BaLwce6V658DuPj2B6eM-100" target="BaLwce6V658DuPj2B6eM-102">
          <mxGeometry relative="1" as="geometry">
            <mxPoint x="1920" y="-10" as="targetPoint" />
          </mxGeometry>
        </mxCell>
        <mxCell id="BaLwce6V658DuPj2B6eM-100" value="start" style="ellipse;whiteSpace=wrap;html=1;" parent="1" vertex="1">
          <mxGeometry x="1860" width="120" height="80" as="geometry" />
        </mxCell>
        <mxCell id="bAh6WNI2BAp8KADH5OYd-7" style="edgeStyle=orthogonalEdgeStyle;rounded=0;orthogonalLoop=1;jettySize=auto;html=1;exitX=0.5;exitY=1;exitDx=0;exitDy=0;entryX=0.5;entryY=0;entryDx=0;entryDy=0;" edge="1" parent="1" source="BaLwce6V658DuPj2B6eM-102" target="bAh6WNI2BAp8KADH5OYd-6">
          <mxGeometry relative="1" as="geometry" />
        </mxCell>
        <mxCell id="BaLwce6V658DuPj2B6eM-102" value="input&lt;br&gt;Введите количество элементов &lt;br&gt;первого массива&amp;nbsp;m" style="shape=parallelogram;perimeter=parallelogramPerimeter;whiteSpace=wrap;html=1;fixedSize=1;" parent="1" vertex="1">
          <mxGeometry x="1812.5" y="115" width="215" height="65" as="geometry" />
        </mxCell>
        <mxCell id="BaLwce6V658DuPj2B6eM-130" style="edgeStyle=orthogonalEdgeStyle;rounded=0;orthogonalLoop=1;jettySize=auto;html=1;exitX=1;exitY=0.5;exitDx=0;exitDy=0;entryX=0;entryY=0.5;entryDx=0;entryDy=0;" parent="1" source="BaLwce6V658DuPj2B6eM-105" target="BaLwce6V658DuPj2B6eM-129" edge="1">
          <mxGeometry relative="1" as="geometry" />
        </mxCell>
        <mxCell id="bAh6WNI2BAp8KADH5OYd-11" style="edgeStyle=orthogonalEdgeStyle;rounded=0;orthogonalLoop=1;jettySize=auto;html=1;entryX=0.5;entryY=0;entryDx=0;entryDy=0;" edge="1" parent="1" source="BaLwce6V658DuPj2B6eM-105" target="bAh6WNI2BAp8KADH5OYd-10">
          <mxGeometry relative="1" as="geometry" />
        </mxCell>
        <mxCell id="BaLwce6V658DuPj2B6eM-105" value="for (i&amp;lt;m, i++)" style="rhombus;whiteSpace=wrap;html=1;" parent="1" vertex="1">
          <mxGeometry x="1825.5" y="300" width="190" height="190" as="geometry" />
        </mxCell>
        <mxCell id="bAh6WNI2BAp8KADH5OYd-32" style="edgeStyle=orthogonalEdgeStyle;rounded=0;orthogonalLoop=1;jettySize=auto;html=1;exitX=0.5;exitY=1;exitDx=0;exitDy=0;entryX=0;entryY=0.5;entryDx=0;entryDy=0;" edge="1" parent="1" source="BaLwce6V658DuPj2B6eM-113" target="bAh6WNI2BAp8KADH5OYd-15">
          <mxGeometry relative="1" as="geometry">
            <Array as="points">
              <mxPoint x="2310" y="740" />
              <mxPoint x="2150" y="740" />
              <mxPoint x="2150" y="395" />
            </Array>
          </mxGeometry>
        </mxCell>
        <mxCell id="BaLwce6V658DuPj2B6eM-113" value="j++" style="rounded=0;whiteSpace=wrap;html=1;" parent="1" vertex="1">
          <mxGeometry x="2250" y="615" width="120" height="60" as="geometry" />
        </mxCell>
        <mxCell id="bAh6WNI2BAp8KADH5OYd-26" style="edgeStyle=orthogonalEdgeStyle;rounded=0;orthogonalLoop=1;jettySize=auto;html=1;entryX=0.5;entryY=0;entryDx=0;entryDy=0;" edge="1" parent="1" source="BaLwce6V658DuPj2B6eM-129" target="bAh6WNI2BAp8KADH5OYd-21">
          <mxGeometry relative="1" as="geometry" />
        </mxCell>
        <mxCell id="BaLwce6V658DuPj2B6eM-129" value="fullArr=GenMas(m)" style="rounded=0;whiteSpace=wrap;html=1;" parent="1" vertex="1">
          <mxGeometry x="2180" y="150" width="260" height="60" as="geometry" />
        </mxCell>
        <mxCell id="BaLwce6V658DuPj2B6eM-158" value="exit" style="text;html=1;align=center;verticalAlign=middle;resizable=0;points=[];autosize=1;" parent="1" vertex="1">
          <mxGeometry x="2060.5" y="400" width="30" height="20" as="geometry" />
        </mxCell>
        <mxCell id="bAh6WNI2BAp8KADH5OYd-5" value="GenMas(m)" style="rounded=0;whiteSpace=wrap;html=1;fillColor=none;dashed=1;dashPattern=8 8;verticalAlign=top;align=left;" vertex="1" parent="1">
          <mxGeometry x="1730.5" y="190" width="319.5" height="440" as="geometry" />
        </mxCell>
        <mxCell id="bAh6WNI2BAp8KADH5OYd-8" style="edgeStyle=orthogonalEdgeStyle;rounded=0;orthogonalLoop=1;jettySize=auto;html=1;exitX=0.5;exitY=1;exitDx=0;exitDy=0;entryX=0.5;entryY=0;entryDx=0;entryDy=0;" edge="1" parent="1" source="bAh6WNI2BAp8KADH5OYd-6" target="BaLwce6V658DuPj2B6eM-105">
          <mxGeometry relative="1" as="geometry" />
        </mxCell>
        <mxCell id="bAh6WNI2BAp8KADH5OYd-6" value="i=0&lt;br&gt;mas[] string[m]" style="rounded=0;whiteSpace=wrap;html=1;" vertex="1" parent="1">
          <mxGeometry x="1870" y="210" width="101" height="55" as="geometry" />
        </mxCell>
        <mxCell id="bAh6WNI2BAp8KADH5OYd-13" style="edgeStyle=orthogonalEdgeStyle;rounded=0;orthogonalLoop=1;jettySize=auto;html=1;entryX=0;entryY=0.5;entryDx=0;entryDy=0;" edge="1" parent="1" source="bAh6WNI2BAp8KADH5OYd-10" target="BaLwce6V658DuPj2B6eM-105">
          <mxGeometry relative="1" as="geometry">
            <Array as="points">
              <mxPoint x="1920.5" y="610" />
              <mxPoint x="1770.5" y="610" />
              <mxPoint x="1770.5" y="395" />
            </Array>
          </mxGeometry>
        </mxCell>
        <mxCell id="bAh6WNI2BAp8KADH5OYd-10" value="input&lt;br&gt;Введите i-й элемент&lt;br&gt;массива&lt;br&gt;mas[i]" style="shape=parallelogram;perimeter=parallelogramPerimeter;whiteSpace=wrap;html=1;fixedSize=1;" vertex="1" parent="1">
          <mxGeometry x="1813" y="520" width="215" height="65" as="geometry" />
        </mxCell>
        <mxCell id="bAh6WNI2BAp8KADH5OYd-12" value="do" style="text;html=1;align=center;verticalAlign=middle;resizable=0;points=[];autosize=1;" vertex="1" parent="1">
          <mxGeometry x="1923" y="485" width="40" height="30" as="geometry" />
        </mxCell>
        <mxCell id="bAh6WNI2BAp8KADH5OYd-24" style="edgeStyle=orthogonalEdgeStyle;rounded=0;orthogonalLoop=1;jettySize=auto;html=1;entryX=0.5;entryY=0;entryDx=0;entryDy=0;" edge="1" parent="1" source="bAh6WNI2BAp8KADH5OYd-15" target="bAh6WNI2BAp8KADH5OYd-23">
          <mxGeometry relative="1" as="geometry" />
        </mxCell>
        <mxCell id="bAh6WNI2BAp8KADH5OYd-34" style="edgeStyle=orthogonalEdgeStyle;rounded=0;orthogonalLoop=1;jettySize=auto;html=1;exitX=1;exitY=0.5;exitDx=0;exitDy=0;entryX=0;entryY=0.5;entryDx=0;entryDy=0;" edge="1" parent="1" source="bAh6WNI2BAp8KADH5OYd-15" target="bAh6WNI2BAp8KADH5OYd-33">
          <mxGeometry relative="1" as="geometry" />
        </mxCell>
        <mxCell id="bAh6WNI2BAp8KADH5OYd-15" value="for (i&amp;lt;fullArr.Lengh, i++)" style="rhombus;whiteSpace=wrap;html=1;" vertex="1" parent="1">
          <mxGeometry x="2215" y="350" width="190" height="90" as="geometry" />
        </mxCell>
        <mxCell id="bAh6WNI2BAp8KADH5OYd-16" value="CutMas(fullArr)" style="rounded=0;whiteSpace=wrap;html=1;fillColor=none;dashed=1;dashPattern=8 8;verticalAlign=top;align=left;" vertex="1" parent="1">
          <mxGeometry x="2120.5" y="227.5" width="819.5" height="802.5" as="geometry" />
        </mxCell>
        <mxCell id="bAh6WNI2BAp8KADH5OYd-19" value="do" style="text;html=1;align=center;verticalAlign=middle;resizable=0;points=[];autosize=1;" vertex="1" parent="1">
          <mxGeometry x="2312.5" y="450" width="40" height="30" as="geometry" />
        </mxCell>
        <mxCell id="bAh6WNI2BAp8KADH5OYd-27" style="edgeStyle=orthogonalEdgeStyle;rounded=0;orthogonalLoop=1;jettySize=auto;html=1;entryX=0.5;entryY=0;entryDx=0;entryDy=0;" edge="1" parent="1" source="bAh6WNI2BAp8KADH5OYd-21" target="bAh6WNI2BAp8KADH5OYd-15">
          <mxGeometry relative="1" as="geometry" />
        </mxCell>
        <mxCell id="bAh6WNI2BAp8KADH5OYd-21" value="i=0, j=0" style="rounded=0;whiteSpace=wrap;html=1;" vertex="1" parent="1">
          <mxGeometry x="2259.5" y="250" width="101" height="55" as="geometry" />
        </mxCell>
        <mxCell id="bAh6WNI2BAp8KADH5OYd-25" style="edgeStyle=orthogonalEdgeStyle;rounded=0;orthogonalLoop=1;jettySize=auto;html=1;entryX=0.5;entryY=0;entryDx=0;entryDy=0;" edge="1" parent="1" source="bAh6WNI2BAp8KADH5OYd-23" target="BaLwce6V658DuPj2B6eM-113">
          <mxGeometry relative="1" as="geometry" />
        </mxCell>
        <mxCell id="bAh6WNI2BAp8KADH5OYd-28" style="edgeStyle=orthogonalEdgeStyle;rounded=0;orthogonalLoop=1;jettySize=auto;html=1;entryX=0;entryY=0.5;entryDx=0;entryDy=0;" edge="1" parent="1" source="bAh6WNI2BAp8KADH5OYd-23" target="bAh6WNI2BAp8KADH5OYd-15">
          <mxGeometry relative="1" as="geometry">
            <Array as="points">
              <mxPoint x="2470" y="535" />
              <mxPoint x="2470" y="740" />
              <mxPoint x="2150" y="740" />
              <mxPoint x="2150" y="395" />
            </Array>
          </mxGeometry>
        </mxCell>
        <mxCell id="bAh6WNI2BAp8KADH5OYd-23" value="if arr[i].Langth&amp;lt;4" style="rhombus;whiteSpace=wrap;html=1;" vertex="1" parent="1">
          <mxGeometry x="2187.5" y="495" width="245" height="80" as="geometry" />
        </mxCell>
        <mxCell id="bAh6WNI2BAp8KADH5OYd-29" value="false" style="text;html=1;align=center;verticalAlign=middle;resizable=0;points=[];autosize=1;strokeColor=none;fillColor=none;" vertex="1" parent="1">
          <mxGeometry x="2406" y="498" width="50" height="30" as="geometry" />
        </mxCell>
        <mxCell id="bAh6WNI2BAp8KADH5OYd-30" value="true" style="text;html=1;align=center;verticalAlign=middle;resizable=0;points=[];autosize=1;strokeColor=none;fillColor=none;" vertex="1" parent="1">
          <mxGeometry x="2320.5" y="575" width="40" height="30" as="geometry" />
        </mxCell>
        <mxCell id="bAh6WNI2BAp8KADH5OYd-47" style="edgeStyle=orthogonalEdgeStyle;rounded=0;orthogonalLoop=1;jettySize=auto;html=1;entryX=0.5;entryY=0;entryDx=0;entryDy=0;" edge="1" parent="1" source="bAh6WNI2BAp8KADH5OYd-33" target="bAh6WNI2BAp8KADH5OYd-42">
          <mxGeometry relative="1" as="geometry" />
        </mxCell>
        <mxCell id="bAh6WNI2BAp8KADH5OYd-33" value="mas[] string[j]" style="rounded=0;whiteSpace=wrap;html=1;" vertex="1" parent="1">
          <mxGeometry x="2519.94" y="365" width="260" height="60" as="geometry" />
        </mxCell>
        <mxCell id="bAh6WNI2BAp8KADH5OYd-54" style="edgeStyle=orthogonalEdgeStyle;rounded=0;orthogonalLoop=1;jettySize=auto;html=1;" edge="1" parent="1" source="bAh6WNI2BAp8KADH5OYd-38" target="bAh6WNI2BAp8KADH5OYd-52">
          <mxGeometry relative="1" as="geometry" />
        </mxCell>
        <mxCell id="bAh6WNI2BAp8KADH5OYd-61" style="edgeStyle=orthogonalEdgeStyle;rounded=0;orthogonalLoop=1;jettySize=auto;html=1;entryX=0;entryY=0.5;entryDx=0;entryDy=0;" edge="1" parent="1" source="bAh6WNI2BAp8KADH5OYd-38" target="bAh6WNI2BAp8KADH5OYd-46">
          <mxGeometry relative="1" as="geometry" />
        </mxCell>
        <mxCell id="bAh6WNI2BAp8KADH5OYd-38" value="for (i&amp;lt;fullArr.Lengh, i++)" style="rhombus;whiteSpace=wrap;html=1;" vertex="1" parent="1">
          <mxGeometry x="2554.94" y="675" width="190" height="90" as="geometry" />
        </mxCell>
        <mxCell id="bAh6WNI2BAp8KADH5OYd-39" value="do" style="text;html=1;align=center;verticalAlign=middle;resizable=0;points=[];autosize=1;" vertex="1" parent="1">
          <mxGeometry x="2650" y="765" width="40" height="30" as="geometry" />
        </mxCell>
        <mxCell id="bAh6WNI2BAp8KADH5OYd-48" style="edgeStyle=orthogonalEdgeStyle;rounded=0;orthogonalLoop=1;jettySize=auto;html=1;entryX=0;entryY=0.5;entryDx=0;entryDy=0;" edge="1" parent="1" source="bAh6WNI2BAp8KADH5OYd-42" target="bAh6WNI2BAp8KADH5OYd-46">
          <mxGeometry relative="1" as="geometry" />
        </mxCell>
        <mxCell id="bAh6WNI2BAp8KADH5OYd-50" style="edgeStyle=orthogonalEdgeStyle;rounded=0;orthogonalLoop=1;jettySize=auto;html=1;entryX=0.5;entryY=0;entryDx=0;entryDy=0;" edge="1" parent="1" source="bAh6WNI2BAp8KADH5OYd-42" target="bAh6WNI2BAp8KADH5OYd-49">
          <mxGeometry relative="1" as="geometry" />
        </mxCell>
        <mxCell id="bAh6WNI2BAp8KADH5OYd-42" value="if j&amp;gt;0" style="rhombus;whiteSpace=wrap;html=1;" vertex="1" parent="1">
          <mxGeometry x="2527.44" y="460" width="245" height="80" as="geometry" />
        </mxCell>
        <mxCell id="bAh6WNI2BAp8KADH5OYd-43" value="false" style="text;html=1;align=center;verticalAlign=middle;resizable=0;points=[];autosize=1;strokeColor=none;fillColor=none;" vertex="1" parent="1">
          <mxGeometry x="2760" y="470" width="50" height="30" as="geometry" />
        </mxCell>
        <mxCell id="bAh6WNI2BAp8KADH5OYd-44" value="true" style="text;html=1;align=center;verticalAlign=middle;resizable=0;points=[];autosize=1;strokeColor=none;fillColor=none;" vertex="1" parent="1">
          <mxGeometry x="2660.44" y="537.5" width="40" height="30" as="geometry" />
        </mxCell>
        <mxCell id="bAh6WNI2BAp8KADH5OYd-67" style="edgeStyle=orthogonalEdgeStyle;rounded=0;orthogonalLoop=1;jettySize=auto;html=1;entryX=0.5;entryY=0;entryDx=0;entryDy=0;" edge="1" parent="1" source="bAh6WNI2BAp8KADH5OYd-46" target="bAh6WNI2BAp8KADH5OYd-66">
          <mxGeometry relative="1" as="geometry" />
        </mxCell>
        <mxCell id="bAh6WNI2BAp8KADH5OYd-46" value="cutArr = CutMas(fullArr)" style="rounded=0;whiteSpace=wrap;html=1;" vertex="1" parent="1">
          <mxGeometry x="3010" y="470" width="260" height="60" as="geometry" />
        </mxCell>
        <mxCell id="bAh6WNI2BAp8KADH5OYd-51" style="edgeStyle=orthogonalEdgeStyle;rounded=0;orthogonalLoop=1;jettySize=auto;html=1;entryX=0.5;entryY=0;entryDx=0;entryDy=0;" edge="1" parent="1" source="bAh6WNI2BAp8KADH5OYd-49" target="bAh6WNI2BAp8KADH5OYd-38">
          <mxGeometry relative="1" as="geometry" />
        </mxCell>
        <mxCell id="bAh6WNI2BAp8KADH5OYd-49" value="k=0, i=0" style="rounded=0;whiteSpace=wrap;html=1;" vertex="1" parent="1">
          <mxGeometry x="2599.44" y="585" width="101" height="55" as="geometry" />
        </mxCell>
        <mxCell id="bAh6WNI2BAp8KADH5OYd-56" style="edgeStyle=orthogonalEdgeStyle;rounded=0;orthogonalLoop=1;jettySize=auto;html=1;entryX=0.5;entryY=0;entryDx=0;entryDy=0;" edge="1" parent="1" source="bAh6WNI2BAp8KADH5OYd-52" target="bAh6WNI2BAp8KADH5OYd-55">
          <mxGeometry relative="1" as="geometry" />
        </mxCell>
        <mxCell id="bAh6WNI2BAp8KADH5OYd-58" style="edgeStyle=orthogonalEdgeStyle;rounded=0;orthogonalLoop=1;jettySize=auto;html=1;entryX=0;entryY=0.5;entryDx=0;entryDy=0;" edge="1" parent="1" source="bAh6WNI2BAp8KADH5OYd-52" target="bAh6WNI2BAp8KADH5OYd-38">
          <mxGeometry relative="1" as="geometry">
            <Array as="points">
              <mxPoint x="2800" y="840" />
              <mxPoint x="2800" y="1000" />
              <mxPoint x="2510" y="1000" />
              <mxPoint x="2510" y="720" />
            </Array>
          </mxGeometry>
        </mxCell>
        <mxCell id="bAh6WNI2BAp8KADH5OYd-52" value="if arr[i].Langth&amp;lt;4" style="rhombus;whiteSpace=wrap;html=1;" vertex="1" parent="1">
          <mxGeometry x="2527.44" y="800" width="245" height="80" as="geometry" />
        </mxCell>
        <mxCell id="bAh6WNI2BAp8KADH5OYd-57" style="edgeStyle=orthogonalEdgeStyle;rounded=0;orthogonalLoop=1;jettySize=auto;html=1;entryX=0;entryY=0.5;entryDx=0;entryDy=0;" edge="1" parent="1" source="bAh6WNI2BAp8KADH5OYd-55" target="bAh6WNI2BAp8KADH5OYd-38">
          <mxGeometry relative="1" as="geometry">
            <Array as="points">
              <mxPoint x="2650" y="1000" />
              <mxPoint x="2510" y="1000" />
              <mxPoint x="2510" y="720" />
            </Array>
          </mxGeometry>
        </mxCell>
        <mxCell id="bAh6WNI2BAp8KADH5OYd-55" value="k++&lt;br&gt;mas[k]=fulArr[i]" style="rounded=0;whiteSpace=wrap;html=1;" vertex="1" parent="1">
          <mxGeometry x="2589.94" y="910" width="120" height="60" as="geometry" />
        </mxCell>
        <mxCell id="bAh6WNI2BAp8KADH5OYd-59" value="false" style="text;html=1;align=center;verticalAlign=middle;resizable=0;points=[];autosize=1;strokeColor=none;fillColor=none;" vertex="1" parent="1">
          <mxGeometry x="2772.44" y="800" width="50" height="30" as="geometry" />
        </mxCell>
        <mxCell id="bAh6WNI2BAp8KADH5OYd-60" value="true" style="text;html=1;align=center;verticalAlign=middle;resizable=0;points=[];autosize=1;strokeColor=none;fillColor=none;" vertex="1" parent="1">
          <mxGeometry x="2660.44" y="880" width="40" height="30" as="geometry" />
        </mxCell>
        <mxCell id="bAh6WNI2BAp8KADH5OYd-62" value="exit" style="text;html=1;align=center;verticalAlign=middle;resizable=0;points=[];autosize=1;" vertex="1" parent="1">
          <mxGeometry x="2749.94" y="690" width="30" height="20" as="geometry" />
        </mxCell>
        <mxCell id="bAh6WNI2BAp8KADH5OYd-63" value="exit" style="text;html=1;align=center;verticalAlign=middle;resizable=0;points=[];autosize=1;" vertex="1" parent="1">
          <mxGeometry x="2402.5" y="370" width="30" height="20" as="geometry" />
        </mxCell>
        <mxCell id="bAh6WNI2BAp8KADH5OYd-64" style="edgeStyle=orthogonalEdgeStyle;rounded=0;orthogonalLoop=1;jettySize=auto;html=1;exitX=0.5;exitY=1;exitDx=0;exitDy=0;entryX=0.5;entryY=0;entryDx=0;entryDy=0;" edge="1" parent="1" target="bAh6WNI2BAp8KADH5OYd-65">
          <mxGeometry relative="1" as="geometry">
            <mxPoint x="3140" y="645" as="sourcePoint" />
          </mxGeometry>
        </mxCell>
        <mxCell id="bAh6WNI2BAp8KADH5OYd-65" value="end" style="ellipse;whiteSpace=wrap;html=1;" vertex="1" parent="1">
          <mxGeometry x="3080" y="695" width="120" height="80" as="geometry" />
        </mxCell>
        <mxCell id="bAh6WNI2BAp8KADH5OYd-66" value="&lt;span&gt;print&amp;nbsp;&lt;/span&gt;cutArr" style="shape=document;whiteSpace=wrap;html=1;boundedLbl=1;" vertex="1" parent="1">
          <mxGeometry x="3080" y="585" width="120" height="80" as="geometry" />
        </mxCell>
      </root>
    </mxGraphModel>
  </diagram>
</mxfile>
